<svg id="Layer_1" data-name="Layer 1" xmlns="http://www.w3.org/2000/svg" viewBox="0 0 64 64"><path d="M52.877,38.0783l-1.1388-.0775-.5365-1.0148a23.164,23.164,0,0,0,4.0219-11.0437l1.0453-.3361.9513.4528A25.1438,25.1438,0,0,1,52.877,38.0783Z" fill="#e94235"/><path d="M48.4167,13.3779a14.1588,14.1588,0,0,0-8.4582-1.7769l-.4833-.9708L39.8,9.6074a16.1148,16.1148,0,0,1,9.63,2.0459l-.16,1.0388Z" fill="#34a853"/><path d="M57.22,26.059l-1.9966-.1167a12.5041,12.5041,0,0,0-.7632-5.33,14.6631,14.6631,0,0,0-6.0437-7.2341l1.0127-1.7246a16.6686,16.6686,0,0,1,6.8875,8.2151A14.5052,14.5052,0,0,1,57.22,26.059Z" fill="#fbbc05"/><path d="M51.2017,36.986a38.5531,38.5531,0,0,1-4.1695,5.2623A77.3553,77.3553,0,0,1,34.849,53.0753l1.7531,1.2163A81.3079,81.3079,0,0,0,48.4915,43.6159a40.5629,40.5629,0,0,0,4.3855-5.5376Z" fill="#4285f4"/><path d="M37.2715,17.83A13.8192,13.8192,0,0,0,33.77,13.4777a16.3394,16.3394,0,0,1,6.1882-1.8767L39.8,9.6074a18.44,18.44,0,0,0-7.8227,2.6076,21.2893,21.2893,0,0,0-5.64-2.2751c-8.2847-2.16-15.5914,4.1438-17.49,7.8359-1.8386,3.5747-3.7981,9.2249.3943,16.9905a53.7065,53.7065,0,0,0,3.7376,5.6311l.3244.45c3.0691,4.2551,9.1822,9.6284,18.1687,15.9707l.5137.3625.5493-.3056c.4513-.2512.9119-.5218,1.3711-.802l-1.271-.8819c-.1775-.1252-.3518-.2494-.527-.3737l0,0-.1182-.0844q-.2256-.16-.4481-.32-.1821-.13-.3629-.26-.2038-.1464-.4049-.2919-.1944-.1407-.3869-.28-.1842-.1339-.3659-.267-.206-.15-.41-.3-.1686-.1239-.3352-.2471-.2109-.1558-.4193-.3108-.1555-.116-.31-.2312-.2166-.1618-.43-.3228-.1439-.1085-.2864-.2162-.2175-.1647-.4321-.3282-.1366-.1043-.272-.2079-.2155-.1651-.428-.3292-.1308-.1011-.2606-.2018-.2142-.1664-.4249-.3313-.1237-.0968-.2466-.1934-.2115-.1662-.4194-.3314-.12-.0948-.2383-.19-.2059-.1641-.4082-.3271-.1176-.0947-.2343-.189-.2-.1617-.3958-.322-.1149-.0937-.2287-.1871-.1953-.16-.3867-.3194c-.0736-.0611-.1473-.1221-.22-.1829q-.19-.1587-.3763-.3158c-.0721-.0608-.1443-.1216-.2156-.1822-.1226-.104-.2434-.2072-.3638-.31-.07-.06-.1406-.12-.21-.18q-.178-.1536-.3523-.3059c-.0687-.06-.1377-.12-.2057-.18-.114-.1-.2262-.2-.338-.2989-.0678-.06-.1361-.1206-.2031-.1806-.11-.0982-.218-.1959-.3258-.2934-.0658-.06-.132-.1193-.1969-.1785-.1057-.0963-.2094-.192-.3129-.2876-.065-.06-.1305-.12-.1945-.18-.1006-.0936-.1993-.1866-.2979-.2795-.0641-.06-.1287-.1209-.1918-.1809-.0962-.0913-.19-.1819-.2843-.2726-.0626-.06-.1258-.1208-.1876-.1809-.0919-.0892-.1815-.1777-.2714-.2662-.0615-.0606-.1236-.1214-.184-.1816-.0866-.0861-.1709-.1715-.2557-.2569-.0609-.0615-.1226-.1233-.1826-.1845-.0825-.0842-.1627-.1674-.2434-.2509-.0588-.061-.1186-.1224-.1765-.1829-.0787-.0824-.155-.1639-.2318-.2456-.0573-.0608-.1154-.1221-.1715-.1824-.0742-.08-.1461-.159-.2185-.2383-.0559-.0611-.1128-.1226-.1675-.1833-.07-.077-.1365-.1531-.2042-.2295-.055-.0619-.111-.1243-.1647-.1857-.0635-.0726-.1245-.1443-.1863-.2163-.0553-.0643-.1117-.129-.1657-.193-.0569-.0672-.1114-.1336-.1668-.2s-.1128-.1347-.167-.2012c-.05-.0613-.0974-.1216-.1462-.1822-.0572-.0713-.1154-.143-.1708-.2135-.0366-.0467-.0712-.0926-.1071-.139-.1639-.2117-.3223-.4215-.4709-.6274L14.7975,39.5,14.6,39.2263a52.4308,52.4308,0,0,1-3.5989-5.41c-3.7017-6.8569-2.1453-11.685-.3758-15.1252,1.7549-3.4116,8.3365-8.6074,15.2076-6.8157a20.3262,20.3262,0,0,1,4.3379,1.626,13.7894,13.7894,0,0,0-4.18,5.77c-1.5384,4.0269-1.3836,7.8528.4243,10.4968a6.7018,6.7018,0,0,0,5.6514,2.9561l.0539,0a6.187,6.187,0,0,0,4.9226-2.1394c1.6514-1.967,2.21-5.2258,1.5318-8.9407A14.0643,14.0643,0,0,0,37.2715,17.83Zm-1.76,11.4687a4.1972,4.1972,0,0,1-3.39,1.4253l-.0423,0a4.6924,4.6924,0,0,1-4.0131-2.085c-1.4112-2.0639-1.4886-5.2991-.2071-8.6543A11.9751,11.9751,0,0,1,31.97,14.6223a11.8377,11.8377,0,0,1,3.528,4.1323,11.9867,11.9867,0,0,1,1.11,3.2488C37.178,25.13,36.7786,27.79,35.5112,29.299Z" fill="#bdc1c6"/></svg>